<svg width="512" height="512" xmlns="http://www.w3.org/2000/svg">

 <g>
  <title>background</title>
  <rect fill="none" id="canvas_background" height="402" width="582" y="-1" x="-1"/>
 </g>
 <g>
  <title>Layer 1</title>
  <path fill="#333333" id="svg_1" d="m133.801,314.912l11.102,-16.713l0,-54.907l0,-16.719c-4.512,0.644 -9.115,0.996 -13.801,0.996c-4.687,0 -9.29,-0.353 -13.802,-0.996l0,16.719l0,72.344l15.161,0c0.542,0.001 1.043,-0.27 1.34,-0.724z"/>
  <path fill="#333333" id="svg_2" d="m117.3,214.707l0,0.169c4.496,0.731 9.103,1.126 13.802,1.126c4.698,0 9.305,-0.396 13.801,-1.126l0,-0.169c40.687,-6.601 71.755,-41.881 71.755,-84.433c0,-47.251 -38.305,-85.556 -85.556,-85.556c-47.252,0 -85.557,38.305 -85.557,85.556c0,42.551 31.068,77.831 71.755,84.433zm13.802,-145.051c33.478,0 60.617,27.14 60.617,60.618s-27.14,60.618 -60.617,60.618c-33.479,0 -60.618,-27.14 -60.618,-60.618s27.139,-60.618 60.618,-60.618z"/>
  <path fill="#333333" id="svg_3" d="m123.387,136.766l0,-30.029l10.968,0c6.047,0 10.966,4.919 10.966,10.967c0,6.047 -4.919,10.967 -10.966,10.967l0,16.19c14.976,0 27.156,-12.182 27.156,-27.157c0,-14.975 -12.181,-27.158 -27.156,-27.158l-27.158,0l0,8.095l0,38.125l0,33.236l16.19,0l0,-33.236z"/>
  <path fill="#333333" id="svg_4" d="m382.058,319.914l-39.213,-58.219c-5.381,-7.988 -14.382,-12.777 -24.014,-12.777l-55.853,0l-55.854,0c-9.632,0 -18.632,4.79 -24.013,12.777l-5.681,8.434l-32.529,48.976l-1.441,2.17c-2.415,3.699 -6.537,5.931 -11,5.931l-1.703,0l-13.457,0l0,0.039l-9.557,0c-11.944,0 -22.662,7.334 -26.987,18.467l-20.093,51.715c-4.297,11.058 3.861,22.979 15.725,22.979l50.313,0c0,25.89 20.987,46.877 46.877,46.877s46.877,-20.987 46.877,-46.877l42.523,0l42.522,0c0,25.89 20.987,46.877 46.877,46.877s46.877,-20.987 46.877,-46.877l50.313,0c11.864,0 20.021,-11.922 15.726,-22.979l-20.093,-51.715c-4.326,-11.133 -15.043,-18.467 -26.987,-18.467l-22.38,0c-5.525,-0.001 -10.688,-2.749 -13.775,-7.331zm-208.48,121.652c-11.687,0 -21.161,-9.475 -21.161,-21.161s9.475,-21.161 21.161,-21.161c11.688,0 21.161,9.475 21.161,21.161s-9.473,21.161 -21.161,21.161zm76.493,-122.407c0,4.138 -3.354,7.491 -7.491,7.491l-53.027,0c-7.092,0 -11.452,-7.759 -7.766,-13.816l19.797,-32.523c3.119,-5.123 8.685,-8.251 14.683,-8.251l26.313,0c4.138,0 7.491,3.354 7.491,7.491l0,39.608zm33.305,7.491c-4.138,0 -7.491,-3.354 -7.491,-7.491l0,-39.608c0,-4.137 3.354,-7.491 7.491,-7.491l26.313,0c5.999,0 11.563,3.128 14.683,8.251l19.797,32.523c3.688,6.058 -0.674,13.816 -7.765,13.816l-53.028,0zm69.002,114.916c-11.687,0 -21.161,-9.475 -21.161,-21.161s9.475,-21.161 21.161,-21.161c11.688,0 21.161,9.475 21.161,21.161s-9.474,21.161 -21.161,21.161z"/>
 </g>
</svg>