<svg width="29.999999999999996" height="29.999999999999996" xmlns="http://www.w3.org/2000/svg">

 <g>
  <title>background</title>
  <rect fill="none" id="canvas_background" height="402" width="582" y="-1" x="-1"/>
 </g>
 <g>
  <title>Layer 1</title>
  <path fill="#333333" id="svg_1" d="m12.684,19.993c-0.302,-0.261 -0.545,-0.576 -0.684,-0.993l0,-2c0.383,-0.189 1.363,-1.324 1.734,-2.395c-0.314,-0.498 -0.56,-1.125 -0.664,-1.94c-0.086,-0.677 0.016,-1.266 0.223,-1.755c-0.155,-0.539 -0.293,-1.214 -0.293,-1.91c0,-1.386 0.287,-2.655 0.799,-3.757c-0.462,-0.464 -1.056,-0.743 -1.799,-0.743c0,0 -0.374,-1.5 -2.5,-1.5c-3.488,0 -5.5,2.721 -5.5,6c0,1.104 0.528,2.214 0.528,2.214c-0.212,0.122 -0.562,0.51 -0.474,1.198c0.164,1.283 0.72,1.608 1.074,1.635c0.135,1.198 1.422,2.73 1.872,2.953l0,2c-1,3 -7,1 -7,8l9,0c0,-4.176 1.864,-6.01 3.684,-7.007z"/>
  <path fill="#333333" id="svg_3" d="m23,19l0,-2c0.45,-0.223 1.737,-1.755 1.872,-2.952c0.354,-0.027 0.91,-0.352 1.074,-1.635c0.088,-0.689 -0.262,-1.076 -0.474,-1.198c0,0 0.528,-1.003 0.528,-2.214c0,-2.428 -0.953,-4.5 -3,-4.5c0,0 -0.374,-1.5 -2.5,-1.5c-3.488,-0.001 -5.5,2.72 -5.5,5.999c0,1.104 0.528,2.214 0.528,2.214c-0.212,0.122 -0.562,0.51 -0.474,1.198c0.164,1.283 0.72,1.608 1.074,1.635c0.135,1.198 1.422,2.73 1.872,2.953l0,2c-1,3 -7,1 -7,8l19,0c0,-7 -6,-5 -7,-8z"/>
 </g>
</svg>